<svg width="1280" height="720" xmlns="http://www.w3.org/2000/svg">
 <g id="Layer_1">
  <title>Layer 1</title>
  <path id="svg_1" d="m1279,505.5c-87,-69 -372,-297 -440,-352c-68,-55 -179,-54 -224,-4c-45,50 -151,193 -261,146c-110,-47 -100,-124 -100,-185c0,-61 -143,-72 -143,4c0,76 3,136 2,193c-1,57 47,126 128,129c81,3 472,-1 553,-2c81,-1 90,109 9,110c-81,1 -803,-1 -803,-1.5" opacity="NaN" stroke="#000" fill="#fff"/>
  <path id="svg_3" d="m244,436.5" opacity="NaN" stroke="#000" fill="#fff"/>
 </g>

</svg>